<?xml version="1.0" encoding="utf-8"?>
<!-- Generator: Adobe Illustrator 15.0.2, SVG Export Plug-In . SVG Version: 6.00 Build 0)  -->
<!DOCTYPE svg PUBLIC "-//W3C//DTD SVG 1.1//EN" "http://www.w3.org/Graphics/SVG/1.1/DTD/svg11.dtd">
<svg version="1.1" id="Calque_1" xmlns="http://www.w3.org/2000/svg" xmlns:xlink="http://www.w3.org/1999/xlink" x="0px" y="0px"
	 width="170px" height="34px" viewBox="-34 0.021 170 34" enable-background="new -34 0.021 170 34" xml:space="preserve">
<g>
	<polygon fill="#D31147" points="34,34.021 6,34.021 0,0.021 28,0.021 	"/>
	
		<linearGradient id="SVGID_1_" gradientUnits="userSpaceOnUse" x1="917.9688" y1="817.6189" x2="917.9688" y2="785.4766" gradientTransform="matrix(1 0 0 -1 -901 818.603)">
		<stop  offset="0" style="stop-color:#D31147"/>
		<stop  offset="1" style="stop-color:#FFFFFE;stop-opacity:0.15"/>
	</linearGradient>
	<polygon fill="url(#SVGID_1_)" points="32.756,33.021 6.775,33.021 1.182,1.062 27.219,1.062 	"/>
	<polygon opacity="0.35" fill="#FFFFFE" enable-background="new    " points="27.377,2.062 1.383,2.063 1.182,1.062 27.219,1.062 	
		"/>
	<path fill="#2E2E2D" d="M22.555,13.221V9.15h-2.219v2.38l-3.272-2.509l-8.83,6.66l1.511,1.914l0.893-0.574v8h12.789v-8.147
		l0.829,0.703l1.51-1.896L22.555,13.221z M22.128,23.746h-2.853v-4.789h-4.488v4.789h-2.872V16.15l5.15-3.916l5.064,3.787
		L22.128,23.746L22.128,23.746z"/>
</g>
<g>
	<polygon fill="#D31147" points="0,34.021 -28,34.021 -34,0.021 -6,0.021 	"/>
	
		<linearGradient id="SVGID_2_" gradientUnits="userSpaceOnUse" x1="883.9688" y1="817.6189" x2="883.9688" y2="785.4766" gradientTransform="matrix(1 0 0 -1 -901 818.603)">
		<stop  offset="0" style="stop-color:#D31147"/>
		<stop  offset="1" style="stop-color:#FFFFFE;stop-opacity:0.15"/>
	</linearGradient>
	<polygon fill="url(#SVGID_2_)" points="-1.244,33.021 -27.225,33.021 -32.818,1.062 -6.781,1.062 	"/>
	<polygon opacity="0.35" fill="#FFFFFE" enable-background="new    " points="-6.623,2.062 -32.617,2.063 -32.818,1.062 
		-6.781,1.062 	"/>
	<path fill="#2E2E2D" d="M-11.445,13.221V9.15h-2.219v2.38l-3.272-2.509l-8.83,6.66l1.511,1.914l0.893-0.574v8h12.789v-8.147
		l0.829,0.703l1.51-1.896L-11.445,13.221z M-11.872,23.746h-2.853v-4.789h-4.488v4.789h-2.872V16.15l5.15-3.916l5.064,3.787
		L-11.872,23.746L-11.872,23.746z"/>
</g>
<g>
	<g>
		<polygon fill="#F01B57" points="68,34.021 40,34.021 34,0.021 62,0.021 		"/>
		
			<linearGradient id="SVGID_3_" gradientUnits="userSpaceOnUse" x1="951.9688" y1="807.6189" x2="951.9688" y2="775.4766" gradientTransform="matrix(1 0 0 -1 -901 808.603)">
			<stop  offset="0" style="stop-color:#F01B57"/>
			<stop  offset="1" style="stop-color:#FFFFFE;stop-opacity:0.15"/>
		</linearGradient>
		<polygon fill="url(#SVGID_3_)" points="66.756,33.021 40.775,33.021 35.182,1.062 61.219,1.062 		"/>
		<polygon opacity="0.35" fill="#FFFFFE" enable-background="new    " points="61.377,2.062 35.383,2.063 35.182,1.062 
			61.219,1.062 		"/>
	</g>
	<path fill="#0A7039" d="M56.555,13.221V9.15h-2.218v2.38l-3.273-2.509l-8.83,6.66l1.511,1.914l0.893-0.574v8h12.789v-8.147
		l0.829,0.703l1.51-1.896L56.555,13.221z M56.128,23.746h-2.853v-4.789h-4.488v4.789h-2.872V16.15l5.15-3.916l5.064,3.787
		L56.128,23.746L56.128,23.746z"/>
</g>
<g>
	<g>
		<polygon fill="#F01B57" points="102,34.021 74,34.021 68,0.021 96,0.021 		"/>
		
			<linearGradient id="SVGID_4_" gradientUnits="userSpaceOnUse" x1="985.9678" y1="807.6189" x2="985.9678" y2="775.4766" gradientTransform="matrix(1 0 0 -1 -901 808.603)">
			<stop  offset="0" style="stop-color:#F01B57"/>
			<stop  offset="1" style="stop-color:#FFFFFE;stop-opacity:0.15"/>
		</linearGradient>
		<polygon fill="url(#SVGID_4_)" points="100.756,33.021 74.775,33.021 69.182,1.062 95.219,1.062 		"/>
		<polygon opacity="0.35" fill="#FFFFFE" enable-background="new    " points="95.377,2.062 69.383,2.063 69.182,1.062 
			95.219,1.062 		"/>
	</g>
	<path fill="#0A7039" d="M90.555,13.221V9.15h-2.218v2.38l-3.272-2.509l-8.83,6.66l1.511,1.914l0.894-0.574v8h12.789v-8.147
		l0.828,0.703l1.51-1.896L90.555,13.221z M90.128,23.746h-2.853v-4.789h-4.488v4.789h-2.872V16.15l5.149-3.916l5.063,3.787V23.746
		L90.128,23.746z"/>
</g>
<g>
	<g>
		<polygon fill="#F01B57" points="136,34.021 108,34.021 102,0.021 130,0.021 		"/>
		
			<linearGradient id="SVGID_5_" gradientUnits="userSpaceOnUse" x1="1019.9678" y1="807.6189" x2="1019.9678" y2="775.4766" gradientTransform="matrix(1 0 0 -1 -901 808.603)">
			<stop  offset="0" style="stop-color:#F01B57"/>
			<stop  offset="1" style="stop-color:#FFFFFE;stop-opacity:0.15"/>
		</linearGradient>
		<polygon fill="url(#SVGID_5_)" points="134.756,33.021 108.775,33.021 103.182,1.062 129.219,1.062 		"/>
		<polygon opacity="0.35" fill="#FFFFFE" enable-background="new    " points="129.377,2.062 103.383,2.063 103.182,1.062 
			129.219,1.062 		"/>
	</g>
	<path fill="#0A7039" d="M124.555,13.221V9.15h-2.218v2.38l-3.272-2.509l-8.83,6.66l1.511,1.914l0.894-0.574v8h12.789v-8.147
		l0.828,0.703l1.51-1.896L124.555,13.221z M124.128,23.746h-2.853v-4.789h-4.488v4.789h-2.872V16.15l5.149-3.916l5.063,3.787V23.746
		L124.128,23.746z"/>
</g>
</svg>
