<?xml version="1.0" encoding="utf-8"?>
<!-- Generator: Adobe Illustrator 15.0.2, SVG Export Plug-In . SVG Version: 6.00 Build 0)  -->
<!DOCTYPE svg PUBLIC "-//W3C//DTD SVG 1.1//EN" "http://www.w3.org/Graphics/SVG/1.1/DTD/svg11.dtd">
<svg xmlns="http://www.w3.org/2000/svg" xmlns:xlink="http://www.w3.org/1999/xlink" version="1.1" id="Calque_1" x="0px" y="0px" width="22px" height="22px" viewBox="0 0 22 22" enable-background="new 0 0 22 22" xml:space="preserve">
<circle fill="#fff5f5" cx="11" cy="11" r="11"/>
<path opacity="0.25" d="M0.027,11.471c-0.111-1.438,0.123-2.907,0.61-4.293c0.515-1.375,1.315-2.652,2.334-3.735  C5.01,1.26,7.983-0.005,11.013,0c2.979-0.006,5.989,1.259,8.018,3.441c1.018,1.083,1.817,2.36,2.333,3.736  c0.487,1.386,0.722,2.854,0.608,4.293c-0.196-2.87-1.458-5.586-3.484-7.486c-2.023-1.905-4.725-3.008-7.5-2.987  C8.262,0.975,5.524,2.078,3.512,3.983C1.486,5.885,0.223,8.6,0.027,11.471z"/>
</svg>
