<?xml version="1.0" encoding="utf-8"?>
<!-- Generator: Adobe Illustrator 15.0.2, SVG Export Plug-In . SVG Version: 6.00 Build 0)  -->
<!DOCTYPE svg PUBLIC "-//W3C//DTD SVG 1.1//EN" "http://www.w3.org/Graphics/SVG/1.1/DTD/svg11.dtd">
<svg version="1.1" id="Calque_1" xmlns="http://www.w3.org/2000/svg" xmlns:xlink="http://www.w3.org/1999/xlink" x="0px" y="0px"
	 width="28.32px" height="28.32px" viewBox="0 0 28.32 28.32" enable-background="new 0 0 28.32 28.32" xml:space="preserve">
<linearGradient id="SVGID_1_" gradientUnits="userSpaceOnUse" x1="293.7595" y1="-376.8" x2="293.7595" y2="-386.8005" gradientTransform="matrix(1.192488e-008 -1 -1 -1.192488e-008 -367.64 307.9193)">
	<stop  offset="0" style="stop-color:#EEEBE8"/>
	<stop  offset="1" style="stop-color:#E8C6B0"/>
</linearGradient>
<path fill="url(#SVGID_1_)" d="M9.159,9.046c0,0.021,0.002,0.04,0.002,0.062H9.159v10.103h0.002c0,0.021-0.002,0.041-0.002,0.064
	c0,2.76,2.239,5,5,5c2.76,0,5-2.24,5-5c0-0.023-0.004-0.045-0.006-0.064h0.006V9.107h-0.004c0-0.021,0.004-0.04,0.004-0.062
	c0-2.762-2.24-5-5-5C11.399,4.046,9.159,6.284,9.159,9.046z"/>
<radialGradient id="SVGID_2_" cx="293.7595" cy="-381.8" r="7.9788" gradientTransform="matrix(1.192488e-008 -1 -1 -1.192488e-008 -367.64 307.9193)" gradientUnits="userSpaceOnUse">
	<stop  offset="0" style="stop-color:#FFFFFE;stop-opacity:0.42"/>
	<stop  offset="1" style="stop-color:#FFFFFE;stop-opacity:0"/>
</radialGradient>
<path fill="url(#SVGID_2_)" d="M9.159,9.046c0,0.021,0.002,0.04,0.002,0.062H9.159v10.103h0.002c0,0.021-0.002,0.041-0.002,0.064
	c0,2.76,2.239,5,5,5c2.76,0,5-2.24,5-5c0-0.023-0.004-0.045-0.006-0.064h0.006V9.107h-0.004c0-0.021,0.004-0.04,0.004-0.062
	c0-2.762-2.24-5-5-5C11.399,4.046,9.159,6.284,9.159,9.046z"/>
</svg>
